<?xml version="1.0" standalone="no"?>
<!DOCTYPE svg PUBLIC "-//W3C//DTD SVG 20010904//EN"
 "http://www.w3.org/TR/2001/REC-SVG-20010904/DTD/svg10.dtd">
<svg version="1.0" xmlns="http://www.w3.org/2000/svg"
 width="344.000000pt" height="344.000000pt" viewBox="0 0 344.000000 344.000000"
 preserveAspectRatio="xMidYMid meet">
<metadata>
Created by potrace 1.11, written by Peter Selinger 2001-2013
</metadata>
<g transform="translate(0.000000,344.000000) scale(0.100000,-0.100000)"
fill="#000000" stroke="none">
<path d="M690 1720 c0 -1260 1 -1352 17 -1346 28 11 2283 1340 2283 1346 0 6
-2255 1335 -2283 1346 -16 6 -17 -89 -17 -1346z m1094 555 c514 -302 935 -552
935 -555 0 -5 -1859 -1101 -1880 -1108 -5 -2 -9 441 -9 1108 0 667 4 1110 9
1108 5 -1 430 -250 945 -553z"/>
</g>
</svg>
